<svg width="34" height="30" viewBox="0 0 34 30" fill="none" xmlns="http://www.w3.org/2000/svg">
<rect width="34" height="30" rx="10" fill="#F1F1F1"/>
<path d="M23.75 10.485C21.2525 10.2375 18.74 10.11 16.235 10.11C14.75 10.11 13.265 10.185 11.78 10.335L10.25 10.485" stroke="#9D1F4F" stroke-width="1.5" stroke-linecap="round" stroke-linejoin="round"/>
<path d="M14.375 9.7275L14.54 8.745C14.66 8.0325 14.75 7.5 16.0175 7.5H17.9825C19.25 7.5 19.3475 8.0625 19.46 8.7525L19.625 9.7275" stroke="#9D1F4F" stroke-width="1.5" stroke-linecap="round" stroke-linejoin="round"/>
<path d="M22.1373 12.855L21.6498 20.4075C21.5673 21.585 21.4998 22.5 19.4073 22.5H14.5923C12.4998 22.5 12.4323 21.585 12.3498 20.4075L11.8623 12.855" stroke="#9D1F4F" stroke-width="1.5" stroke-linecap="round" stroke-linejoin="round"/>
<path d="M15.7476 18.375H18.2451" stroke="#9D1F4F" stroke-width="1.5" stroke-linecap="round" stroke-linejoin="round"/>
<path d="M15.125 15.375H18.875" stroke="#9D1F4F" stroke-width="1.5" stroke-linecap="round" stroke-linejoin="round"/>
</svg>
