<svg width="70" height="70" viewBox="0 0 70 70" fill="none" xmlns="http://www.w3.org/2000/svg">
<circle cx="35" cy="35" r="35" fill="#D9D3FF"/>
<path d="M39.1766 35C39.1766 37.31 37.3099 39.1767 34.9999 39.1767C32.6899 39.1767 30.8232 37.31 30.8232 35C30.8232 32.69 32.6899 30.8234 34.9999 30.8234C37.3099 30.8234 39.1766 32.69 39.1766 35Z" stroke="#3700AC" stroke-width="1.5" stroke-linecap="round" stroke-linejoin="round"/>
<path d="M35.0001 44.6483C39.1184 44.6483 42.9567 42.2216 45.6284 38.0216C46.6784 36.3766 46.6784 33.6116 45.6284 31.9666C42.9567 27.7666 39.1184 25.34 35.0001 25.34C30.8817 25.34 27.0434 27.7666 24.3717 31.9666C23.3217 33.6116 23.3217 36.3766 24.3717 38.0216C27.0434 42.2216 30.8817 44.6483 35.0001 44.6483Z" stroke="#3700AC" stroke-width="1.5" stroke-linecap="round" stroke-linejoin="round"/>
</svg>
