<svg width="70" height="70" viewBox="0 0 70 70" fill="none" xmlns="http://www.w3.org/2000/svg">
<circle cx="35" cy="35" r="35" fill="#D3FFE7"/>
<path d="M33.5435 40.6704V43.0388C33.5435 45.0454 31.6768 46.6671 29.3785 46.6671C27.0801 46.6671 25.2018 45.0454 25.2018 43.0388V40.6704C25.2018 42.6771 27.0685 44.1004 29.3785 44.1004C31.6768 44.1004 33.5435 42.6654 33.5435 40.6704Z" stroke="#00AC4F" stroke-width="1.5" stroke-linecap="round" stroke-linejoin="round"/>
<path d="M33.5417 37.4616C33.5417 38.0449 33.3783 38.5816 33.0983 39.0483C32.41 40.1799 30.9983 40.8916 29.365 40.8916C27.7316 40.8916 26.32 40.1683 25.6316 39.0483C25.3516 38.5816 25.1884 38.0449 25.1884 37.4616C25.1884 36.4583 25.655 35.5599 26.4017 34.9066C27.16 34.2416 28.1983 33.845 29.3533 33.845C30.5083 33.845 31.5467 34.2533 32.305 34.9066C33.075 35.5483 33.5417 36.4583 33.5417 37.4616Z" stroke="#00AC4F" stroke-width="1.5" stroke-linecap="round" stroke-linejoin="round"/>
<path d="M33.5435 37.4617V40.67C33.5435 42.6767 31.6768 44.1 29.3785 44.1C27.0801 44.1 25.2018 42.665 25.2018 40.67V37.4617C25.2018 35.455 27.0685 33.8334 29.3785 33.8334C30.5335 33.8334 31.5718 34.2417 32.3302 34.895C33.0768 35.5483 33.5435 36.4584 33.5435 37.4617Z" stroke="#00AC4F" stroke-width="1.5" stroke-linecap="round" stroke-linejoin="round"/>
<path d="M46.6667 33.7983V36.2018C46.6667 36.8434 46.1534 37.3684 45.5 37.3917H43.2134C41.9534 37.3917 40.7984 36.47 40.6934 35.21C40.6234 34.475 40.9034 33.7867 41.3934 33.3084C41.825 32.865 42.42 32.6084 43.0734 32.6084H45.5C46.1534 32.6317 46.6667 33.1567 46.6667 33.7983Z" stroke="#00AC4F" stroke-width="1.5" stroke-linecap="round" stroke-linejoin="round"/>
<path d="M23.3334 33.25V30.9167C23.3334 27.7434 25.2467 25.5267 28.2217 25.1534C28.525 25.1067 28.84 25.0834 29.1667 25.0834H39.6667C39.97 25.0834 40.2617 25.095 40.5417 25.1417C43.5517 25.4917 45.5 27.72 45.5 30.9167V32.6084H43.0734C42.42 32.6084 41.825 32.865 41.3934 33.3084C40.9034 33.7867 40.6234 34.475 40.6934 35.21C40.7984 36.47 41.9533 37.3917 43.2133 37.3917H45.5V39.0834C45.5 42.5834 43.1667 44.9167 39.6667 44.9167H36.75" stroke="#00AC4F" stroke-width="1.5" stroke-linecap="round" stroke-linejoin="round"/>
</svg>
