<svg width="70" height="70" viewBox="0 0 70 70" fill="none" xmlns="http://www.w3.org/2000/svg">
<circle cx="35" cy="35" r="35" fill="#D3FFE7"/>
<path d="M32.083 37.0417C32.083 38.1734 32.958 39.0834 34.0314 39.0834H36.2247C37.158 39.0834 37.9163 38.29 37.9163 37.2984C37.9163 36.2367 37.4497 35.8517 36.7614 35.6067L33.2497 34.3817C32.5613 34.1367 32.0947 33.7634 32.0947 32.69C32.0947 31.71 32.853 30.905 33.7863 30.905H35.9797C37.053 30.905 37.928 31.815 37.928 32.9467" stroke="#00AC4F" stroke-width="1.5" stroke-linecap="round" stroke-linejoin="round"/>
<path d="M35 29.75V40.25" stroke="#00AC4F" stroke-width="1.5" stroke-linecap="round" stroke-linejoin="round"/>
<path d="M46.6663 35C46.6663 41.44 41.4397 46.6667 34.9997 46.6667C28.5597 46.6667 23.333 41.44 23.333 35C23.333 28.56 28.5597 23.3334 34.9997 23.3334" stroke="#00AC4F" stroke-width="1.5" stroke-linecap="round" stroke-linejoin="round"/>
<path d="M46.6667 28V23.3334H42" stroke="#00AC4F" stroke-width="1.5" stroke-linecap="round" stroke-linejoin="round"/>
<path d="M40.833 29.1667L46.6663 23.3334" stroke="#00AC4F" stroke-width="1.5" stroke-linecap="round" stroke-linejoin="round"/>
</svg>
