<svg width="70" height="70" viewBox="0 0 70 70" fill="none" xmlns="http://www.w3.org/2000/svg">
<circle cx="35" cy="35" r="35" fill="#FFD3D3"/>
<path d="M24.815 35C23.8934 33.8917 23.3334 32.4683 23.3334 30.9167C23.3334 27.3933 26.215 24.5 29.75 24.5H35.5834C39.1067 24.5 42 27.3933 42 30.9167C42 34.44 39.1184 37.3333 35.5834 37.3333H32.6667" stroke="#AC0000" stroke-width="1.5" stroke-linecap="round" stroke-linejoin="round"/>
<path d="M45.185 35C46.1067 36.1083 46.6667 37.5316 46.6667 39.0833C46.6667 42.6066 43.785 45.5 40.25 45.5H34.4167C30.8933 45.5 28 42.6066 28 39.0833C28 35.56 30.8817 32.6666 34.4167 32.6666H37.3333" stroke="#AC0000" stroke-width="1.5" stroke-linecap="round" stroke-linejoin="round"/>
</svg>
