<svg width="56" height="56" viewBox="0 0 56 56" fill="none" xmlns="http://www.w3.org/2000/svg">
<circle cx="28" cy="28" r="28" fill="#9D1F4F" fill-opacity="0.12"/>
<path d="M27.5003 14.6666C20.1537 14.6666 14.167 20.6533 14.167 28C14.167 35.3466 20.1537 41.3333 27.5003 41.3333C34.847 41.3333 40.8337 35.3466 40.8337 28C40.8337 20.6533 34.847 14.6666 27.5003 14.6666ZM33.8737 24.9333L26.3137 32.4933C26.127 32.68 25.8737 32.7866 25.607 32.7866C25.3403 32.7866 25.087 32.68 24.9003 32.4933L21.127 28.72C20.7403 28.3333 20.7403 27.6933 21.127 27.3066C21.5137 26.92 22.1537 26.92 22.5403 27.3066L25.607 30.3733L32.4603 23.52C32.847 23.1333 33.487 23.1333 33.8737 23.52C34.2603 23.9066 34.2603 24.5333 33.8737 24.9333Z" fill="#9D1F4F"/>
</svg>
